<svg xmlns="http://www.w3.org/2000/svg" width="1920" height="1080"><path d="M862,1312L473,1336L1059,1321Z" fill="#7c5faa" stroke="#7c5faa" stroke-width="1.51"/><path d="M1059,1321L473,1336L1442,1328Z" fill="#7254a3" stroke="#7254a3" stroke-width="1.51"/><path d="M763,-229L991,-219L1446,-236Z" fill="#c5c2df" stroke="#c5c2df" stroke-width="1.51"/><path d="M763,-229L1446,-236L1622,-251Z" fill="#bcb7da" stroke="#bcb7da" stroke-width="1.51"/><path d="M389,-252L763,-229L1622,-251Z" fill="#cdcae2" stroke="#cdcae2" stroke-width="1.51"/><path d="M1927,1305L1822,1314L2049,1298Z" fill="#4a1786" stroke="#4a1786" stroke-width="1.51"/><path d="M2039,189L1991,383L2080,423Z" fill="#8569b0" stroke="#8569b0" stroke-width="1.51"/><path d="M1974,989L2036,1166L2101,975Z" fill="#552b8f" stroke="#552b8f" stroke-width="1.51"/><path d="M2036,1166L2049,1298L2101,975Z" fill="#4e1e89" stroke="#4e1e89" stroke-width="1.51"/><path d="M2067,-106L1915,104L2109,101Z" fill="#997aba" stroke="#997aba" stroke-width="1.51"/><path d="M2039,189L2080,423L2109,101Z" fill="#8b6db2" stroke="#8b6db2" stroke-width="1.51"/><path d="M2082,-172L2067,-106L2109,101Z" fill="#9c7bba" stroke="#9c7bba" stroke-width="1.51"/><path d="M2061,546L1970,644L2130,724Z" fill="#6e51a2" stroke="#6e51a2" stroke-width="1.51"/><path d="M1970,644L2041,836L2130,724Z" fill="#674b9f" stroke="#674b9f" stroke-width="1.51"/><path d="M2080,423L2061,546L2130,724Z" fill="#7255a3" stroke="#7255a3" stroke-width="1.51"/><path d="M2041,836L2101,975L2130,724Z" fill="#5f3e98" stroke="#5f3e98" stroke-width="1.51"/><path d="M2109,101L2080,423L2130,724Z" fill="#7d5faa" stroke="#7d5faa" stroke-width="1.51"/><path d="M1974,989L1943,1131L2036,1166Z" fill="#54288e" stroke="#54288e" stroke-width="1.51"/><path d="M1882,-68L1915,104L2067,-106Z" fill="#9e80bd" stroke="#9e80bd" stroke-width="1.51"/><path d="M2041,836L1974,989L2101,975Z" fill="#5b3694" stroke="#5b3694" stroke-width="1.51"/><path d="M1915,104L2039,189L2109,101Z" fill="#9476b8" stroke="#9476b8" stroke-width="1.51"/><path d="M1945,879L1974,989L2041,836Z" fill="#5e3c98" stroke="#5e3c98" stroke-width="1.51"/><path d="M1961,521L2061,546L2080,423Z" fill="#795ca9" stroke="#795ca9" stroke-width="1.51"/><path d="M1915,104L1961,187L2039,189Z" fill="#9377b8" stroke="#9377b8" stroke-width="1.51"/><path d="M1961,187L1991,383L2039,189Z" fill="#8c70b4" stroke="#8c70b4" stroke-width="1.51"/><path d="M1991,383L1961,521L2080,423Z" fill="#7e61ab" stroke="#7e61ab" stroke-width="1.51"/><path d="M1926,-215L2067,-106L2082,-172Z" fill="#a182be" stroke="#a182be" stroke-width="1.51"/><path d="M1970,644L1945,879L2041,836Z" fill="#65489e" stroke="#65489e" stroke-width="1.51"/><path d="M2036,1166L1927,1305L2049,1298Z" fill="#4a1786" stroke="#4a1786" stroke-width="1.51"/><path d="M1961,521L1970,644L2061,546Z" fill="#7558a7" stroke="#7558a7" stroke-width="1.51"/><path d="M1926,-215L1882,-68L2067,-106Z" fill="#a284c0" stroke="#a284c0" stroke-width="1.51"/><path d="M1623,1274L1442,1328L1822,1314Z" fill="#562e90" stroke="#562e90" stroke-width="1.51"/><path d="M1943,1131L1927,1305L2036,1166Z" fill="#4f1e89" stroke="#4f1e89" stroke-width="1.51"/><path d="M991,-219L1233,-197L1446,-236Z" fill="#beb9db" stroke="#beb9db" stroke-width="1.51"/><path d="M1622,-251L1763,-176L1926,-215Z" fill="#ab91c8" stroke="#ab91c8" stroke-width="1.51"/><path d="M1781,839L1945,879L1970,644Z" fill="#684da1" stroke="#684da1" stroke-width="1.51"/><path d="M1746,646L1781,839L1970,644Z" fill="#6f57a7" stroke="#6f57a7" stroke-width="1.51"/><path d="M1816,1045L1943,1131L1974,989Z" fill="#583092" stroke="#583092" stroke-width="1.51"/><path d="M1961,187L1807,201L1991,383Z" fill="#8e73b6" stroke="#8e73b6" stroke-width="1.51"/><path d="M1807,201L1738,342L1991,383Z" fill="#8d73b7" stroke="#8d73b7" stroke-width="1.51"/><path d="M1738,342L1961,521L1991,383Z" fill="#8369b1" stroke="#8369b1" stroke-width="1.51"/><path d="M1770,1194L1927,1305L1943,1131Z" fill="#51228c" stroke="#51228c" stroke-width="1.51"/><path d="M1738,342L1752,562L1961,521Z" fill="#8169b0" stroke="#8169b0" stroke-width="1.51"/><path d="M1961,521L1752,562L1970,644Z" fill="#775daa" stroke="#775daa" stroke-width="1.51"/><path d="M1752,562L1746,646L1970,644Z" fill="#765eaa" stroke="#765eaa" stroke-width="1.51"/><path d="M1945,879L1816,1045L1974,989Z" fill="#5d3896" stroke="#5d3896" stroke-width="1.51"/><path d="M1770,1194L1822,1314L1927,1305Z" fill="#50208a" stroke="#50208a" stroke-width="1.51"/><path d="M1915,104L1807,201L1961,187Z" fill="#967abb" stroke="#967abb" stroke-width="1.51"/><path d="M1763,-176L1882,-68L1926,-215Z" fill="#a689c4" stroke="#a689c4" stroke-width="1.51"/><path d="M1781,839L1816,1045L1945,879Z" fill="#62419c" stroke="#62419c" stroke-width="1.51"/><path d="M1816,1045L1770,1194L1943,1131Z" fill="#572d91" stroke="#572d91" stroke-width="1.51"/><path d="M1882,-68L1746,118L1915,104Z" fill="#9e83c0" stroke="#9e83c0" stroke-width="1.51"/><path d="M1761,-91L1746,118L1882,-68Z" fill="#a289c3" stroke="#a289c3" stroke-width="1.51"/><path d="M1746,118L1807,201L1915,104Z" fill="#9980be" stroke="#9980be" stroke-width="1.51"/><path d="M1738,342L1687,526L1752,562Z" fill="#846fb3" stroke="#846fb3" stroke-width="1.51"/><path d="M1763,-176L1761,-91L1882,-68Z" fill="#a78cc5" stroke="#a78cc5" stroke-width="1.51"/><path d="M1233,-197L1332,-206L1446,-236Z" fill="#b9b2d7" stroke="#b9b2d7" stroke-width="1.51"/><path d="M1655,-87L1746,118L1761,-91Z" fill="#a58ec5" stroke="#a58ec5" stroke-width="1.51"/><path d="M1679,1132L1770,1194L1816,1045Z" fill="#5a3394" stroke="#5a3394" stroke-width="1.51"/><path d="M1781,839L1676,1002L1816,1045Z" fill="#63439c" stroke="#63439c" stroke-width="1.51"/><path d="M1770,1194L1623,1274L1822,1314Z" fill="#54298e" stroke="#54298e" stroke-width="1.51"/><path d="M1746,646L1598,692L1781,839Z" fill="#725faa" stroke="#725faa" stroke-width="1.51"/><path d="M1631,875L1676,1002L1781,839Z" fill="#684da1" stroke="#684da1" stroke-width="1.51"/><path d="M1676,1002L1679,1132L1816,1045Z" fill="#5e3b98" stroke="#5e3b98" stroke-width="1.51"/><path d="M1637,379L1687,526L1738,342Z" fill="#8a76b8" stroke="#8a76b8" stroke-width="1.51"/><path d="M1746,118L1593,276L1807,201Z" fill="#9984c0" stroke="#9984c0" stroke-width="1.51"/><path d="M1593,276L1738,342L1807,201Z" fill="#937fbd" stroke="#937fbd" stroke-width="1.51"/><path d="M1624,113L1593,276L1746,118Z" fill="#9d8ac3" stroke="#9d8ac3" stroke-width="1.51"/><path d="M1655,-87L1624,113L1746,118Z" fill="#a38ec5" stroke="#a38ec5" stroke-width="1.51"/><path d="M1598,692L1631,875L1781,839Z" fill="#6e5aa8" stroke="#6e5aa8" stroke-width="1.51"/><path d="M1655,-87L1761,-91L1763,-176Z" fill="#a992c8" stroke="#a992c8" stroke-width="1.51"/><path d="M1679,1132L1623,1274L1770,1194Z" fill="#593192" stroke="#593192" stroke-width="1.51"/><path d="M1622,-251L1655,-87L1763,-176Z" fill="#ad97ca" stroke="#ad97ca" stroke-width="1.51"/><path d="M1687,526L1746,646L1752,562Z" fill="#7d67af" stroke="#7d67af" stroke-width="1.51"/><path d="M1593,276L1637,379L1738,342Z" fill="#917fbd" stroke="#917fbd" stroke-width="1.51"/><path d="M1687,526L1598,692L1746,646Z" fill="#7b67af" stroke="#7b67af" stroke-width="1.51"/><path d="M1482,398L1516,592L1637,379Z" fill="#8b7dba" stroke="#8b7dba" stroke-width="1.51"/><path d="M1508,-45L1624,113L1655,-87Z" fill="#a996c9" stroke="#a996c9" stroke-width="1.51"/><path d="M1631,875L1529,984L1676,1002Z" fill="#684ea2" stroke="#684ea2" stroke-width="1.51"/><path d="M1482,1190L1623,1274L1679,1132Z" fill="#5c3796" stroke="#5c3796" stroke-width="1.51"/><path d="M1676,1002L1529,984L1679,1132Z" fill="#63449d" stroke="#63449d" stroke-width="1.51"/><path d="M1637,379L1516,592L1687,526Z" fill="#8675b6" stroke="#8675b6" stroke-width="1.51"/><path d="M1516,592L1598,692L1687,526Z" fill="#7f6eb2" stroke="#7f6eb2" stroke-width="1.51"/><path d="M1529,984L1482,1190L1679,1132Z" fill="#62429c" stroke="#62429c" stroke-width="1.51"/><path d="M1379,1301L1059,1321L1442,1328Z" fill="#63469c" stroke="#63469c" stroke-width="1.51"/><path d="M1446,-236L1508,-45L1622,-251Z" fill="#b2a2d0" stroke="#b2a2d0" stroke-width="1.51"/><path d="M1516,105L1593,276L1624,113Z" fill="#a090c5" stroke="#a090c5" stroke-width="1.51"/><path d="M1508,-45L1516,105L1624,113Z" fill="#a797c9" stroke="#a797c9" stroke-width="1.51"/><path d="M1598,692L1475,889L1631,875Z" fill="#715eaa" stroke="#715eaa" stroke-width="1.51"/><path d="M1622,-251L1508,-45L1655,-87Z" fill="#ae9bcc" stroke="#ae9bcc" stroke-width="1.51"/><path d="M1495,681L1475,889L1598,692Z" fill="#7668af" stroke="#7668af" stroke-width="1.51"/><path d="M1475,889L1529,984L1631,875Z" fill="#6d56a6" stroke="#6d56a6" stroke-width="1.51"/><path d="M1593,276L1482,398L1637,379Z" fill="#9284be" stroke="#9284be" stroke-width="1.51"/><path d="M1516,105L1459,242L1593,276Z" fill="#9e91c6" stroke="#9e91c6" stroke-width="1.51"/><path d="M1482,1190L1442,1328L1623,1274Z" fill="#5c3996" stroke="#5c3996" stroke-width="1.51"/><path d="M1459,242L1482,398L1593,276Z" fill="#988bc3" stroke="#988bc3" stroke-width="1.51"/><path d="M1516,592L1495,681L1598,692Z" fill="#7d6fb3" stroke="#7d6fb3" stroke-width="1.51"/><path d="M1332,-206L1366,-20L1446,-236Z" fill="#b6acd5" stroke="#b6acd5" stroke-width="1.51"/><path d="M1382,683L1352,870L1475,889Z" fill="#786bb1" stroke="#786bb1" stroke-width="1.51"/><path d="M1382,683L1475,889L1495,681Z" fill="#796eb2" stroke="#796eb2" stroke-width="1.51"/><path d="M1446,-236L1366,-20L1508,-45Z" fill="#b2a6d1" stroke="#b2a6d1" stroke-width="1.51"/><path d="M1508,-45L1366,-20L1516,105Z" fill="#ac9fcd" stroke="#ac9fcd" stroke-width="1.51"/><path d="M1482,398L1301,591L1516,592Z" fill="#8a80bb" stroke="#8a80bb" stroke-width="1.51"/><path d="M1384,1043L1482,1190L1529,984Z" fill="#684ca1" stroke="#684ca1" stroke-width="1.51"/><path d="M1475,889L1384,1043L1529,984Z" fill="#6d56a6" stroke="#6d56a6" stroke-width="1.51"/><path d="M1366,-20L1306,69L1516,105Z" fill="#aca3d0" stroke="#aca3d0" stroke-width="1.51"/><path d="M1323,185L1459,242L1516,105Z" fill="#a49aca" stroke="#a49aca" stroke-width="1.51"/><path d="M1306,69L1323,185L1516,105Z" fill="#a9a1ce" stroke="#a9a1ce" stroke-width="1.51"/><path d="M1382,683L1495,681L1516,592Z" fill="#8074b5" stroke="#8074b5" stroke-width="1.51"/><path d="M1301,591L1382,683L1516,592Z" fill="#847bb9" stroke="#847bb9" stroke-width="1.51"/><path d="M1334,357L1301,591L1482,398Z" fill="#928ac1" stroke="#928ac1" stroke-width="1.51"/><path d="M1459,242L1334,357L1482,398Z" fill="#9890c4" stroke="#9890c4" stroke-width="1.51"/><path d="M1379,1301L1442,1328L1482,1190Z" fill="#603e99" stroke="#603e99" stroke-width="1.51"/><path d="M1352,870L1384,1043L1475,889Z" fill="#715eaa" stroke="#715eaa" stroke-width="1.51"/><path d="M1384,1043L1323,1115L1482,1190Z" fill="#684da1" stroke="#684da1" stroke-width="1.51"/><path d="M1323,1115L1379,1301L1482,1190Z" fill="#64469d" stroke="#64469d" stroke-width="1.51"/><path d="M1195,1250L1059,1321L1379,1301Z" fill="#684c9f" stroke="#684c9f" stroke-width="1.51"/><path d="M1323,185L1334,357L1459,242Z" fill="#a099c9" stroke="#a099c9" stroke-width="1.51"/><path d="M1213,498L1301,591L1334,357Z" fill="#928fc3" stroke="#928fc3" stroke-width="1.51"/><path d="M1204,705L1183,796L1352,870Z" fill="#7f79b8" stroke="#7f79b8" stroke-width="1.51"/><path d="M1332,-206L1233,-197L1366,-20Z" fill="#b8b2d7" stroke="#b8b2d7" stroke-width="1.51"/><path d="M1323,1115L1195,1250L1379,1301Z" fill="#674ca0" stroke="#674ca0" stroke-width="1.51"/><path d="M1204,705L1352,870L1382,683Z" fill="#7e78b8" stroke="#7e78b8" stroke-width="1.51"/><path d="M1352,870L1202,968L1384,1043Z" fill="#7362ac" stroke="#7362ac" stroke-width="1.51"/><path d="M1202,968L1323,1115L1384,1043Z" fill="#705ba8" stroke="#705ba8" stroke-width="1.51"/><path d="M1301,591L1204,705L1382,683Z" fill="#8680bc" stroke="#8680bc" stroke-width="1.51"/><path d="M1233,-197L1143,-54L1366,-20Z" fill="#b9b4d8" stroke="#b9b4d8" stroke-width="1.51"/><path d="M1323,185L1148,255L1334,357Z" fill="#a3a0cd" stroke="#a3a0cd" stroke-width="1.51"/><path d="M1143,-54L1306,69L1366,-20Z" fill="#b3afd5" stroke="#b3afd5" stroke-width="1.51"/><path d="M1202,968L1199,1103L1323,1115Z" fill="#715da9" stroke="#715da9" stroke-width="1.51"/><path d="M1183,796L1202,968L1352,870Z" fill="#7a6fb3" stroke="#7a6fb3" stroke-width="1.51"/><path d="M1199,1103L1195,1250L1323,1115Z" fill="#6c54a5" stroke="#6c54a5" stroke-width="1.51"/><path d="M1306,69L1159,131L1323,185Z" fill="#adaad3" stroke="#adaad3" stroke-width="1.51"/><path d="M1130,377L1213,498L1334,357Z" fill="#9a98c9" stroke="#9a98c9" stroke-width="1.51"/><path d="M1148,255L1130,377L1334,357Z" fill="#a2a0cd" stroke="#a2a0cd" stroke-width="1.51"/><path d="M1159,131L1148,255L1323,185Z" fill="#aba9d1" stroke="#aba9d1" stroke-width="1.51"/><path d="M1143,-54L1159,131L1306,69Z" fill="#b4b0d6" stroke="#b4b0d6" stroke-width="1.51"/><path d="M1213,498L1204,705L1301,591Z" fill="#8c88c0" stroke="#8c88c0" stroke-width="1.51"/><path d="M-201,-249L83,-213L389,-252Z" fill="#f3f1f7" stroke="#f3f1f7" stroke-width="1.51"/><path d="M533,1313L473,1336L862,1312Z" fill="#8568af" stroke="#8568af" stroke-width="1.51"/><path d="M1183,796L1075,887L1202,968Z" fill="#7f73b5" stroke="#7f73b5" stroke-width="1.51"/><path d="M1055,650L1204,705L1213,498Z" fill="#8f8bc1" stroke="#8f8bc1" stroke-width="1.51"/><path d="M1051,488L1055,650L1213,498Z" fill="#9692c5" stroke="#9692c5" stroke-width="1.51"/><path d="M991,-219L1143,-54L1233,-197Z" fill="#c1bddc" stroke="#c1bddc" stroke-width="1.51"/><path d="M991,-219L1078,-47L1143,-54Z" fill="#c2bedc" stroke="#c2bedc" stroke-width="1.51"/><path d="M1143,-54L1045,69L1159,131Z" fill="#b9b5d8" stroke="#b9b5d8" stroke-width="1.51"/><path d="M1024,1088L1195,1250L1199,1103Z" fill="#725aa8" stroke="#725aa8" stroke-width="1.51"/><path d="M1024,1088L1199,1103L1202,968Z" fill="#7762ac" stroke="#7762ac" stroke-width="1.51"/><path d="M1043,949L1024,1088L1202,968Z" fill="#7c6ab0" stroke="#7c6ab0" stroke-width="1.51"/><path d="M1130,377L1051,488L1213,498Z" fill="#9c98c8" stroke="#9c98c8" stroke-width="1.51"/><path d="M1024,1088L1059,1321L1195,1250Z" fill="#7157a6" stroke="#7157a6" stroke-width="1.51"/><path d="M1055,650L1183,796L1204,705Z" fill="#8884be" stroke="#8884be" stroke-width="1.51"/><path d="M1078,-47L1045,69L1143,-54Z" fill="#bcb9da" stroke="#bcb9da" stroke-width="1.51"/><path d="M1075,887L1043,949L1202,968Z" fill="#7e70b3" stroke="#7e70b3" stroke-width="1.51"/><path d="M1055,650L1075,887L1183,796Z" fill="#8781bc" stroke="#8781bc" stroke-width="1.51"/><path d="M759,1287L533,1313L862,1312Z" fill="#8164ad" stroke="#8164ad" stroke-width="1.51"/><path d="M1034,337L1130,377L1148,255Z" fill="#a7a5cf" stroke="#a7a5cf" stroke-width="1.51"/><path d="M989,189L1148,255L1159,131Z" fill="#b1aed4" stroke="#b1aed4" stroke-width="1.51"/><path d="M1045,69L989,189L1159,131Z" fill="#b7b4d7" stroke="#b7b4d7" stroke-width="1.51"/><path d="M989,189L1034,337L1148,255Z" fill="#aeacd2" stroke="#aeacd2" stroke-width="1.51"/><path d="M151,1291L-20,1312L473,1336Z" fill="#9878b9" stroke="#9878b9" stroke-width="1.51"/><path d="M1055,650L931,890L1075,887Z" fill="#8982bc" stroke="#8982bc" stroke-width="1.51"/><path d="M1034,337L1051,488L1130,377Z" fill="#a3a0cc" stroke="#a3a0cc" stroke-width="1.51"/><path d="M1034,337L928,363L1051,488Z" fill="#a7a4ce" stroke="#a7a4ce" stroke-width="1.51"/><path d="M830,679L931,890L1055,650Z" fill="#918dc2" stroke="#918dc2" stroke-width="1.51"/><path d="M1051,488L886,582L1055,650Z" fill="#9a95c6" stroke="#9a95c6" stroke-width="1.51"/><path d="M1024,1088L918,1117L1059,1321Z" fill="#785eaa" stroke="#785eaa" stroke-width="1.51"/><path d="M918,1117L862,1312L1059,1321Z" fill="#775ca8" stroke="#775ca8" stroke-width="1.51"/><path d="M991,-219L940,-181L1078,-47Z" fill="#c6c3df" stroke="#c6c3df" stroke-width="1.51"/><path d="M940,-181L927,-40L1078,-47Z" fill="#c6c2de" stroke="#c6c2de" stroke-width="1.51"/><path d="M927,-40L1045,69L1078,-47Z" fill="#c0bcdb" stroke="#c0bcdb" stroke-width="1.51"/><path d="M931,890L1043,949L1075,887Z" fill="#8477b7" stroke="#8477b7" stroke-width="1.51"/><path d="M887,946L1024,1088L1043,949Z" fill="#8270b3" stroke="#8270b3" stroke-width="1.51"/><path d="M939,133L989,189L1045,69Z" fill="#bab8d9" stroke="#bab8d9" stroke-width="1.51"/><path d="M886,582L830,679L1055,650Z" fill="#9995c6" stroke="#9995c6" stroke-width="1.51"/><path d="M989,189L928,363L1034,337Z" fill="#aeadd3" stroke="#aeadd3" stroke-width="1.51"/><path d="M928,363L886,582L1051,488Z" fill="#a39fcb" stroke="#a39fcb" stroke-width="1.51"/><path d="M863,281L928,363L989,189Z" fill="#b2b1d5" stroke="#b2b1d5" stroke-width="1.51"/><path d="M887,946L918,1117L1024,1088Z" fill="#816cb2" stroke="#816cb2" stroke-width="1.51"/><path d="M927,-40L939,133L1045,69Z" fill="#bfbcdb" stroke="#bfbcdb" stroke-width="1.51"/><path d="M931,890L887,946L1043,949Z" fill="#8778b7" stroke="#8778b7" stroke-width="1.51"/><path d="M763,-229L940,-181L991,-219Z" fill="#cdcbe3" stroke="#cdcbe3" stroke-width="1.51"/><path d="M939,133L863,281L989,189Z" fill="#b8b6d8" stroke="#b8b6d8" stroke-width="1.51"/><path d="M-201,-249L-35,-217L83,-213Z" fill="#f6f4f9" stroke="#f6f4f9" stroke-width="1.51"/><path d="M779,693L744,872L830,679Z" fill="#9895c7" stroke="#9895c7" stroke-width="1.51"/><path d="M778,1184L862,1312L918,1117Z" fill="#7f63ad" stroke="#7f63ad" stroke-width="1.51"/><path d="M701,377L766,544L928,363Z" fill="#aeadd3" stroke="#aeadd3" stroke-width="1.51"/><path d="M766,544L886,582L928,363Z" fill="#a6a3cd" stroke="#a6a3cd" stroke-width="1.51"/><path d="M830,679L744,872L931,890Z" fill="#928bc1" stroke="#928bc1" stroke-width="1.51"/><path d="M927,-40L734,61L939,133Z" fill="#c4c3de" stroke="#c4c3de" stroke-width="1.51"/><path d="M734,61L863,281L939,133Z" fill="#bfbedc" stroke="#bfbedc" stroke-width="1.51"/><path d="M714,-107L927,-40L940,-181Z" fill="#ccc9e2" stroke="#ccc9e2" stroke-width="1.51"/><path d="M763,-229L714,-107L940,-181Z" fill="#d1cfe5" stroke="#d1cfe5" stroke-width="1.51"/><path d="M887,946L778,1184L918,1117Z" fill="#846db3" stroke="#846db3" stroke-width="1.51"/><path d="M744,872L887,946L931,890Z" fill="#8d80bc" stroke="#8d80bc" stroke-width="1.51"/><path d="M863,281L701,377L928,363Z" fill="#b3b2d6" stroke="#b3b2d6" stroke-width="1.51"/><path d="M734,61L681,216L863,281Z" fill="#c1c1de" stroke="#c1c1de" stroke-width="1.51"/><path d="M714,-107L734,61L927,-40Z" fill="#cccae3" stroke="#cccae3" stroke-width="1.51"/><path d="M681,948L778,1184L887,946Z" fill="#8b78b8" stroke="#8b78b8" stroke-width="1.51"/><path d="M778,1184L759,1287L862,1312Z" fill="#7f63ac" stroke="#7f63ac" stroke-width="1.51"/><path d="M766,544L830,679L886,582Z" fill="#a09dca" stroke="#a09dca" stroke-width="1.51"/><path d="M744,872L681,948L887,946Z" fill="#9083be" stroke="#9083be" stroke-width="1.51"/><path d="M681,216L701,377L863,281Z" fill="#babbda" stroke="#babbda" stroke-width="1.51"/><path d="M83,-213L270,-220L389,-252Z" fill="#edecf5" stroke="#edecf5" stroke-width="1.51"/><path d="M389,-252L565,-158L763,-229Z" fill="#dedded" stroke="#dedded" stroke-width="1.51"/><path d="M766,544L779,693L830,679Z" fill="#a09cca" stroke="#a09cca" stroke-width="1.51"/><path d="M701,377L613,502L766,544Z" fill="#b0afd4" stroke="#b0afd4" stroke-width="1.51"/><path d="M535,1184L759,1287L778,1184Z" fill="#866bb2" stroke="#866bb2" stroke-width="1.51"/><path d="M681,948L535,1184L778,1184Z" fill="#8d76b8" stroke="#8d76b8" stroke-width="1.51"/><path d="M616,786L744,872L779,693Z" fill="#9a95c7" stroke="#9a95c7" stroke-width="1.51"/><path d="M639,700L616,786L779,693Z" fill="#9f9dcb" stroke="#9f9dcb" stroke-width="1.51"/><path d="M766,544L639,700L779,693Z" fill="#a2a0cc" stroke="#a2a0cc" stroke-width="1.51"/><path d="M613,502L639,700L766,544Z" fill="#aaa7d0" stroke="#aaa7d0" stroke-width="1.51"/><path d="M714,-107L597,-54L734,61Z" fill="#d2d1e7" stroke="#d2d1e7" stroke-width="1.51"/><path d="M565,-158L714,-107L763,-229Z" fill="#d7d7e9" stroke="#d7d7e9" stroke-width="1.51"/><path d="M535,1184L533,1313L759,1287Z" fill="#886db2" stroke="#886db2" stroke-width="1.51"/><path d="M536,965L535,1184L681,948Z" fill="#9481bd" stroke="#9481bd" stroke-width="1.51"/><path d="M553,114L681,216L734,61Z" fill="#cbcbe4" stroke="#cbcbe4" stroke-width="1.51"/><path d="M616,786L681,948L744,872Z" fill="#978ec3" stroke="#978ec3" stroke-width="1.51"/><path d="M597,-54L553,114L734,61Z" fill="#d1d1e7" stroke="#d1d1e7" stroke-width="1.51"/><path d="M555,429L613,502L701,377Z" fill="#b6b6d8" stroke="#b6b6d8" stroke-width="1.51"/><path d="M681,216L567,227L701,377Z" fill="#c1c1df" stroke="#c1c1df" stroke-width="1.51"/><path d="M565,-158L597,-54L714,-107Z" fill="#d8d7ea" stroke="#d8d7ea" stroke-width="1.51"/><path d="M616,786L536,965L681,948Z" fill="#998ec4" stroke="#998ec4" stroke-width="1.51"/><path d="M567,227L555,429L701,377Z" fill="#bdbedd" stroke="#bdbedd" stroke-width="1.51"/><path d="M553,114L567,227L681,216Z" fill="#cacae3" stroke="#cacae3" stroke-width="1.51"/><path d="M437,1099L535,1184L536,965Z" fill="#9680bd" stroke="#9680bd" stroke-width="1.51"/><path d="M477,42L553,114L597,-54Z" fill="#d6d5e9" stroke="#d6d5e9" stroke-width="1.51"/><path d="M428,888L536,965L616,786Z" fill="#9e94c7" stroke="#9e94c7" stroke-width="1.51"/><path d="M402,652L616,786L639,700Z" fill="#a6a4ce" stroke="#a6a4ce" stroke-width="1.51"/><path d="M613,502L402,652L639,700Z" fill="#adabd2" stroke="#adabd2" stroke-width="1.51"/><path d="M447,411L555,429L567,227Z" fill="#c1c1de" stroke="#c1c1de" stroke-width="1.51"/><path d="M555,429L385,494L613,502Z" fill="#b8b8d8" stroke="#b8b8d8" stroke-width="1.51"/><path d="M385,494L402,652L613,502Z" fill="#b6b4d6" stroke="#b6b4d6" stroke-width="1.51"/><path d="M402,652L428,888L616,786Z" fill="#a6a1ce" stroke="#a6a1ce" stroke-width="1.51"/><path d="M565,-158L450,-65L597,-54Z" fill="#dcdbec" stroke="#dcdbec" stroke-width="1.51"/><path d="M450,-65L477,42L597,-54Z" fill="#dadaeb" stroke="#dadaeb" stroke-width="1.51"/><path d="M324,1268L151,1291L473,1336Z" fill="#9576b7" stroke="#9576b7" stroke-width="1.51"/><path d="M447,411L385,494L555,429Z" fill="#bebddb" stroke="#bebddb" stroke-width="1.51"/><path d="M553,114L385,234L567,227Z" fill="#cfcee5" stroke="#cfcee5" stroke-width="1.51"/><path d="M385,234L447,411L567,227Z" fill="#c8c9e2" stroke="#c8c9e2" stroke-width="1.51"/><path d="M389,-252L450,-65L565,-158Z" fill="#e1e0ef" stroke="#e1e0ef" stroke-width="1.51"/><path d="M473,1336L533,1313L535,1184Z" fill="#8d6fb4" stroke="#8d6fb4" stroke-width="1.51"/><path d="M407,973L437,1099L536,965Z" fill="#9b88c2" stroke="#9b88c2" stroke-width="1.51"/><path d="M477,42L385,234L553,114Z" fill="#d4d4e8" stroke="#d4d4e8" stroke-width="1.51"/><path d="M402,652L318,819L428,888Z" fill="#aaa5d0" stroke="#aaa5d0" stroke-width="1.51"/><path d="M324,1268L473,1336L535,1184Z" fill="#9174b6" stroke="#9174b6" stroke-width="1.51"/><path d="M437,1099L324,1268L535,1184Z" fill="#9579ba" stroke="#9579ba" stroke-width="1.51"/><path d="M428,888L407,973L536,965Z" fill="#9e90c5" stroke="#9e90c5" stroke-width="1.51"/><path d="M385,494L324,561L402,652Z" fill="#b9b7d8" stroke="#b9b7d8" stroke-width="1.51"/><path d="M328,1129L324,1268L437,1099Z" fill="#997ebd" stroke="#997ebd" stroke-width="1.51"/><path d="M385,234L337,342L447,411Z" fill="#cacae3" stroke="#cacae3" stroke-width="1.51"/><path d="M389,-252L269,-97L450,-65Z" fill="#e6e5f1" stroke="#e6e5f1" stroke-width="1.51"/><path d="M338,222L385,234L477,42Z" fill="#d5d5e8" stroke="#d5d5e8" stroke-width="1.51"/><path d="M276,70L338,222L477,42Z" fill="#dbdaeb" stroke="#dbdaeb" stroke-width="1.51"/><path d="M450,-65L276,70L477,42Z" fill="#dddded" stroke="#dddded" stroke-width="1.51"/><path d="M270,-220L269,-97L389,-252Z" fill="#eae9f3" stroke="#eae9f3" stroke-width="1.51"/><path d="M407,973L303,1001L437,1099Z" fill="#9f8bc3" stroke="#9f8bc3" stroke-width="1.51"/><path d="M269,-97L276,70L450,-65Z" fill="#e3e2ef" stroke="#e3e2ef" stroke-width="1.51"/><path d="M303,1001L328,1129L437,1099Z" fill="#9d87c1" stroke="#9d87c1" stroke-width="1.51"/><path d="M337,342L385,494L447,411Z" fill="#c3c3df" stroke="#c3c3df" stroke-width="1.51"/><path d="M256,714L318,819L402,652Z" fill="#b0acd4" stroke="#b0acd4" stroke-width="1.51"/><path d="M318,819L303,1001L407,973Z" fill="#a496c8" stroke="#a496c8" stroke-width="1.51"/><path d="M318,819L407,973L428,888Z" fill="#a599ca" stroke="#a599ca" stroke-width="1.51"/><path d="M338,222L337,342L385,234Z" fill="#d0d0e6" stroke="#d0d0e6" stroke-width="1.51"/><path d="M324,561L256,714L402,652Z" fill="#b6b3d6" stroke="#b6b3d6" stroke-width="1.51"/><path d="M337,342L324,561L385,494Z" fill="#c2c0dd" stroke="#c2c0dd" stroke-width="1.51"/><path d="M144,527L324,561L337,342Z" fill="#c3c2de" stroke="#c3c2de" stroke-width="1.51"/><path d="M119,881L303,1001L318,819Z" fill="#aa9ccc" stroke="#aa9ccc" stroke-width="1.51"/><path d="M141,1177L324,1268L328,1129Z" fill="#9b7fbd" stroke="#9b7fbd" stroke-width="1.51"/><path d="M144,188L101,368L337,342Z" fill="#d3d3e8" stroke="#d3d3e8" stroke-width="1.51"/><path d="M101,368L144,527L337,342Z" fill="#cbcae2" stroke="#cbcae2" stroke-width="1.51"/><path d="M144,188L337,342L338,222Z" fill="#d4d4e8" stroke="#d4d4e8" stroke-width="1.51"/><path d="M276,70L144,188L338,222Z" fill="#dbdbec" stroke="#dbdbec" stroke-width="1.51"/><path d="M141,1177L151,1291L324,1268Z" fill="#9b7dbb" stroke="#9b7dbb" stroke-width="1.51"/><path d="M144,527L256,714L324,561Z" fill="#bbb8d9" stroke="#bbb8d9" stroke-width="1.51"/><path d="M303,1001L141,1177L328,1129Z" fill="#9f87c1" stroke="#9f87c1" stroke-width="1.51"/><path d="M89,1037L141,1177L303,1001Z" fill="#a48dc4" stroke="#a48dc4" stroke-width="1.51"/><path d="M269,-97L173,-97L276,70Z" fill="#e6e6f1" stroke="#e6e6f1" stroke-width="1.51"/><path d="M256,714L119,881L318,819Z" fill="#afa7d1" stroke="#afa7d1" stroke-width="1.51"/><path d="M130,717L119,881L256,714Z" fill="#b3add4" stroke="#b3add4" stroke-width="1.51"/><path d="M140,94L144,188L276,70Z" fill="#e0e0ee" stroke="#e0e0ee" stroke-width="1.51"/><path d="M119,881L89,1037L303,1001Z" fill="#a897c9" stroke="#a897c9" stroke-width="1.51"/><path d="M144,527L130,717L256,714Z" fill="#bab7d8" stroke="#bab7d8" stroke-width="1.51"/><path d="M173,-97L269,-97L270,-220Z" fill="#ebe9f3" stroke="#ebe9f3" stroke-width="1.51"/><path d="M173,-97L140,94L276,70Z" fill="#e5e4f0" stroke="#e5e4f0" stroke-width="1.51"/><path d="M83,-213L173,-97L270,-220Z" fill="#eeedf5" stroke="#eeedf5" stroke-width="1.51"/><path d="M-70,552L-67,684L130,717Z" fill="#c0bcdb" stroke="#c0bcdb" stroke-width="1.51"/><path d="M6,839L119,881L130,717Z" fill="#b3abd4" stroke="#b3abd4" stroke-width="1.51"/><path d="M30,-116L-43,37L140,94Z" fill="#ebe9f3" stroke="#ebe9f3" stroke-width="1.51"/><path d="M89,1037L37,1159L141,1177Z" fill="#a489c3" stroke="#a489c3" stroke-width="1.51"/><path d="M101,368L40,384L144,527Z" fill="#cecce3" stroke="#cecce3" stroke-width="1.51"/><path d="M-70,552L130,717L144,527Z" fill="#c2bedc" stroke="#c2bedc" stroke-width="1.51"/><path d="M-10,240L101,368L144,188Z" fill="#dad9eb" stroke="#dad9eb" stroke-width="1.51"/><path d="M30,-116L140,94L173,-97Z" fill="#ebeaf3" stroke="#ebeaf3" stroke-width="1.51"/><path d="M83,-213L30,-116L173,-97Z" fill="#f0eef6" stroke="#f0eef6" stroke-width="1.51"/><path d="M140,94L-10,240L144,188Z" fill="#e0dfee" stroke="#e0dfee" stroke-width="1.51"/><path d="M141,1177L37,1159L151,1291Z" fill="#a082bf" stroke="#a082bf" stroke-width="1.51"/><path d="M37,1159L-20,1312L151,1291Z" fill="#a080be" stroke="#a080be" stroke-width="1.51"/><path d="M27,1045L89,1037L119,881Z" fill="#ab98ca" stroke="#ab98ca" stroke-width="1.51"/><path d="M-43,37L-10,240L140,94Z" fill="#e5e4f0" stroke="#e5e4f0" stroke-width="1.51"/><path d="M40,384L-70,552L144,527Z" fill="#cbc8e1" stroke="#cbc8e1" stroke-width="1.51"/><path d="M27,1045L37,1159L89,1037Z" fill="#a78fc6" stroke="#a78fc6" stroke-width="1.51"/><path d="M-10,240L40,384L101,368Z" fill="#d6d5e9" stroke="#d6d5e9" stroke-width="1.51"/><path d="M6,839L27,1045L119,881Z" fill="#aea0cd" stroke="#aea0cd" stroke-width="1.51"/><path d="M-67,684L6,839L130,717Z" fill="#b9b4d8" stroke="#b9b4d8" stroke-width="1.51"/><path d="M-35,-217L30,-116L83,-213Z" fill="#f2f1f7" stroke="#f2f1f7" stroke-width="1.51"/><path d="M-191,279L-187,415L-10,240Z" fill="#dbdbec" stroke="#dbdbec" stroke-width="1.51"/><path d="M-43,37L-127,69L-10,240Z" fill="#e7e7f2" stroke="#e7e7f2" stroke-width="1.51"/><path d="M6,839L-176,1030L27,1045Z" fill="#af9ccc" stroke="#af9ccc" stroke-width="1.51"/><path d="M-161,-71L-43,37L30,-116Z" fill="#f0eef6" stroke="#f0eef6" stroke-width="1.51"/><path d="M-132,1295L-20,1312L37,1159Z" fill="#a183bf" stroke="#a183bf" stroke-width="1.51"/><path d="M27,1045L-176,1030L37,1159Z" fill="#a992c8" stroke="#a992c8" stroke-width="1.51"/><path d="M-176,1030L-214,1151L37,1159Z" fill="#aa8fc6" stroke="#aa8fc6" stroke-width="1.51"/><path d="M-10,240L-187,415L40,384Z" fill="#d7d6e9" stroke="#d7d6e9" stroke-width="1.51"/><path d="M-187,415L-70,552L40,384Z" fill="#d0cde5" stroke="#d0cde5" stroke-width="1.51"/><path d="M-214,1151L-132,1295L37,1159Z" fill="#a588c2" stroke="#a588c2" stroke-width="1.51"/><path d="M-35,-217L-161,-71L30,-116Z" fill="#f3f1f7" stroke="#f3f1f7" stroke-width="1.51"/><path d="M-70,552L-116,587L-67,684Z" fill="#c4c1de" stroke="#c4c1de" stroke-width="1.51"/><path d="M-67,684L-220,785L6,839Z" fill="#bab4d8" stroke="#bab4d8" stroke-width="1.51"/><path d="M-220,785L-176,1030L6,839Z" fill="#b5a8d3" stroke="#b5a8d3" stroke-width="1.51"/><path d="M-127,69L-191,279L-10,240Z" fill="#e3e2f0" stroke="#e3e2f0" stroke-width="1.51"/><path d="M-161,-71L-127,69L-43,37Z" fill="#eeedf5" stroke="#eeedf5" stroke-width="1.51"/><path d="M-201,-249L-161,-71L-35,-217Z" fill="#f6f5f9" stroke="#f6f5f9" stroke-width="1.51"/><path d="M-187,415L-116,587L-70,552Z" fill="#ccc9e2" stroke="#ccc9e2" stroke-width="1.51"/><path d="M-116,587L-199,649L-67,684Z" fill="#c3c0dd" stroke="#c3c0dd" stroke-width="1.51"/><path d="M-199,649L-220,785L-67,684Z" fill="#bfbbdc" stroke="#bfbbdc" stroke-width="1.51"/><path d="M-187,415L-199,649L-116,587Z" fill="#cbc7e1" stroke="#cbc7e1" stroke-width="1.51"/><path d="M-161,-71L-191,279L-127,69Z" fill="#ebeaf4" stroke="#ebeaf4" stroke-width="1.51"/><path d="M-201,-249L-191,279L-161,-71Z" fill="#f1eff7" stroke="#f1eff7" stroke-width="1.51"/><path d="M-220,785L-214,1151L-176,1030Z" fill="#b19ecd" stroke="#b19ecd" stroke-width="1.51"/><path d="M-191,279L-220,785L-187,415Z" fill="#cfcde4" stroke="#cfcde4" stroke-width="1.51"/><path d="M-220,785L-199,649L-187,415Z" fill="#c6c3df" stroke="#c6c3df" stroke-width="1.51"/><path d="M-201,-249L-220,785L-191,279Z" fill="#dfdfee" stroke="#dfdfee" stroke-width="1.51"/></svg>
